<svg xmlns="http://www.w3.org/2000/svg" viewBox="0 0 22 17.78"><defs><style>.cls-1{fill:#fff;fill-rule:evenodd;}</style></defs><g id="Capa_2" data-name="Capa 2"><g id="Capa_1-2" data-name="Capa 1"><path class="cls-1" d="M21.22,2.71a.76.76,0,0,1,.62.31.69.69,0,0,1,.11.7L20.05,10a2.83,2.83,0,0,1-2.74,2H9.11a2.84,2.84,0,0,1-2.73-2L4,2.29a1,1,0,0,0-1-.73H.78A.77.77,0,0,1,0,.78.77.77,0,0,1,.78,0H3a2.57,2.57,0,0,1,2.5,1.82l.29.89ZM9.29,12.91a2.44,2.44,0,1,0,2.4,2.42A2.42,2.42,0,0,0,9.29,12.91Zm7.48,0a2.44,2.44,0,1,0,2.39,2.42A2.42,2.42,0,0,0,16.77,12.91Z"/></g></g></svg>