<svg xmlns="http://www.w3.org/2000/svg" viewBox="0 0 15.94 15.9"><defs><style>.cls-1{fill:#fff;fill-rule:evenodd;}</style></defs><g id="Capa_2" data-name="Capa 2"><g id="Capa_1-2" data-name="Capa 1"><path class="cls-1" d="M8,1.43c2.13,0,2.38,0,3.22.05a4.26,4.26,0,0,1,1.48.27,2.49,2.49,0,0,1,.92.6,2.54,2.54,0,0,1,.6.91,4.26,4.26,0,0,1,.27,1.48c0,.84,0,1.09,0,3.21s0,2.38,0,3.22a4.24,4.24,0,0,1-.27,1.47,2.57,2.57,0,0,1-.6.92,2.47,2.47,0,0,1-.92.59,4.26,4.26,0,0,1-1.48.27c-.84,0-1.09.05-3.22.05s-2.38,0-3.22-.05a4.26,4.26,0,0,1-1.48-.27,2.55,2.55,0,0,1-.92-.59,2.42,2.42,0,0,1-.59-.92,4.43,4.43,0,0,1-.28-1.47c0-.84,0-1.09,0-3.22s0-2.37,0-3.21a4.44,4.44,0,0,1,.28-1.48,2.39,2.39,0,0,1,.59-.91,2.57,2.57,0,0,1,.92-.6,4.26,4.26,0,0,1,1.48-.27c.84,0,1.09-.05,3.22-.05M8,0C5.81,0,5.54,0,4.69.05A5.85,5.85,0,0,0,2.75.42a3.87,3.87,0,0,0-1.41.91A3.86,3.86,0,0,0,.42,2.74,5.84,5.84,0,0,0,.05,4.67C0,5.52,0,5.79,0,8s0,2.43.05,3.28a5.73,5.73,0,0,0,.37,1.93,3.78,3.78,0,0,0,.92,1.41,4,4,0,0,0,1.41.92,6.12,6.12,0,0,0,1.94.37c.85,0,1.12,0,3.28,0s2.44,0,3.29,0a6,6,0,0,0,1.93-.37,4.07,4.07,0,0,0,2.34-2.33,6,6,0,0,0,.37-1.93c0-.85,0-1.12,0-3.28s0-2.43,0-3.28a6.11,6.11,0,0,0-.37-1.93,4.13,4.13,0,0,0-.92-1.41A3.91,3.91,0,0,0,13.19.42,5.73,5.73,0,0,0,11.26.05C10.41,0,10.14,0,8,0M8,10.6A2.65,2.65,0,1,1,10.63,8,2.65,2.65,0,0,1,8,10.6ZM8,3.87A4.09,4.09,0,1,0,12.07,8,4.09,4.09,0,0,0,8,3.87Zm5.21-.16a1,1,0,0,1-1.91,0,1,1,0,1,1,1.91,0"/></g></g></svg>