<svg xmlns="http://www.w3.org/2000/svg" viewBox="0 0 42.53 30"><defs><style>.cls-1{fill:#fff;fill-rule:evenodd;}</style></defs><g id="Capa_2" data-name="Capa 2"><g id="Capa_1-2" data-name="Capa 1"><path class="cls-1" d="M27.74,15.24a.37.37,0,0,0,0-.48l0,0,0,0L18.56,5.63h0L13.14.24l0,0h0s0,0,0,0A.8.8,0,0,0,12.59,0H.38A.38.38,0,0,0,0,.38.34.34,0,0,0,.09.62l0,0,0,0,14.11,14,0,0,0,0a.39.39,0,0,1,.09.24.36.36,0,0,1-.09.24l-.05,0L.14,29.33l-.05.05a.34.34,0,0,0-.09.24A.38.38,0,0,0,.38,30H12.62a.75.75,0,0,0,.5-.22h0l5.44-5.4ZM42.53.38a.34.34,0,0,1-.09.24l0,0h0L33.93,9.08l0,0h0a.34.34,0,0,1-.24.09.36.36,0,0,1-.24-.09L24.89.67l0,0h0v0a.36.36,0,0,1-.09-.24A.38.38,0,0,1,25.13,0h17A.38.38,0,0,1,42.53.38Zm0,29.24a.38.38,0,0,1-.38.38h-17a.38.38,0,0,1-.38-.38.34.34,0,0,1,.09-.24l0,0h0l8.45-8.4s0,0,0,0h0a.34.34,0,0,1,.24-.09.36.36,0,0,1,.24.09l0,.05,8.46,8.41,0,0,0,0A.36.36,0,0,1,42.53,29.62Z"/></g></g></svg>